<svg
        width="400"
        height="358"
        viewBox="0 0 400 358"
        fill="none"
        xmlns="http://www.w3.org/2000/svg"
      >
        <g clip-path="url(#clip0)">
          <path
            d="M2.24139 80.1789C1.45813 80.3988 0.794222 80.92 0.395324 81.6281C-0.0035735 82.3362 -0.104901 83.1733 0.113574 83.9559L51.4192 266.904C51.6395 267.686 52.1615 268.348 52.8707 268.747C53.5798 269.145 54.4183 269.246 55.202 269.028L244.341 216.149C245.124 215.929 245.788 215.408 246.187 214.7C246.586 213.992 246.687 213.155 246.468 212.372L195.163 29.4243C194.943 28.6422 194.421 27.9794 193.711 27.5811C193.002 27.1828 192.164 27.0816 191.38 27.2998L2.24139 80.1789Z"
            fill="#E6E6E6"
          />
          <path
            d="M57.579 260.389L237.816 209.999L189.003 35.9387L8.76575 86.3292L57.579 260.389Z"
            fill="white"
          />
          <path
            d="M32.5955 109.571C31.393 109.907 30.8972 111.902 31.4903 114.017C32.0835 116.132 33.5445 117.579 34.747 117.243L116.951 94.2608C118.153 93.9246 118.649 91.9302 118.056 89.8151C117.462 87.7 116.002 86.2527 114.799 86.5889L32.5955 109.571Z"
            fill="#E6E6E6"
          />
          <path
            d="M39.2155 133.177C38.013 133.513 37.5172 135.508 38.1104 137.623C38.7036 139.738 40.1645 141.185 41.3671 140.849L123.571 117.867C124.773 117.531 125.269 115.536 124.676 113.421C124.083 111.306 122.622 109.859 121.419 110.195L39.2155 133.177Z"
            fill="#E6E6E6"
          />
          <path
            d="M45.7592 156.511C44.5567 156.847 44.0609 158.842 44.6541 160.957C45.2473 163.072 46.7083 164.519 47.9108 164.183L130.114 141.201C131.317 140.865 131.813 138.87 131.219 136.755C130.626 134.64 129.165 133.193 127.963 133.529L45.7592 156.511Z"
            fill="#E6E6E6"
          />
          <path
            d="M52.3793 180.117C51.1768 180.453 50.681 182.448 51.2742 184.563C51.8673 186.678 53.3283 188.125 54.5308 187.789L136.734 164.807C137.937 164.471 138.433 162.476 137.84 160.361C137.246 158.246 135.785 156.799 134.583 157.135L52.3793 180.117Z"
            fill="#E6E6E6"
          />
          <path
            d="M156.516 75.1978C156.011 75.3384 155.539 75.577 155.126 75.9C154.714 76.2229 154.369 76.624 154.112 77.0801C153.854 77.5362 153.69 78.0385 153.627 78.5583C153.564 79.078 153.604 79.605 153.746 80.1091C153.887 80.6133 154.127 81.0846 154.451 81.4962C154.775 81.9079 155.177 82.2517 155.634 82.5081C156.091 82.7645 156.594 82.9284 157.115 82.9905C157.635 83.0525 158.163 83.0115 158.668 82.8698L174.035 78.5733C175.054 78.2885 175.918 77.6111 176.437 76.6903C176.956 75.7695 177.087 74.6806 176.802 73.6633C176.516 72.6459 175.838 71.7833 174.916 71.2654C173.993 70.7474 172.903 70.6165 171.884 70.9014L156.516 75.1978Z"
            fill="#E6E6E6"
          />
          <path
            d="M163.008 98.3463C162.503 98.4869 162.031 98.7255 161.618 99.0485C161.205 99.3714 160.861 99.7724 160.603 100.229C160.346 100.685 160.181 101.187 160.118 101.707C160.056 102.227 160.096 102.754 160.238 103.258C160.379 103.762 160.618 104.233 160.942 104.645C161.266 105.056 161.668 105.4 162.126 105.657C162.583 105.913 163.086 106.077 163.607 106.139C164.127 106.201 164.655 106.16 165.16 106.018L180.527 101.722C181.546 101.437 182.41 100.76 182.929 99.8388C183.447 98.918 183.579 97.8291 183.293 96.8117C183.008 95.7944 182.33 94.9318 181.407 94.4139C180.485 93.8959 179.395 93.765 178.376 94.0499L163.008 98.3463Z"
            fill="#E6E6E6"
          />
          <path
            d="M169.5 121.495C168.995 121.636 168.524 121.875 168.112 122.198C167.699 122.521 167.355 122.922 167.098 123.378C166.841 123.834 166.677 124.336 166.615 124.855C166.552 125.374 166.592 125.901 166.734 126.405C166.875 126.909 167.114 127.38 167.438 127.791C167.761 128.202 168.163 128.546 168.62 128.803C169.076 129.059 169.579 129.223 170.099 129.286C170.619 129.348 171.147 129.308 171.651 129.167L187.019 124.87C188.038 124.585 188.902 123.908 189.42 122.987C189.939 122.066 190.07 120.978 189.785 119.96C189.5 118.943 188.821 118.08 187.899 117.562C186.977 117.044 185.886 116.913 184.867 117.198L169.5 121.495Z"
            fill="#E6E6E6"
          />
          <path
            d="M175.992 144.643C174.974 144.929 174.111 145.607 173.593 146.527C173.076 147.447 172.945 148.535 173.23 149.552C173.515 150.569 174.193 151.431 175.114 151.949C176.035 152.467 177.125 152.599 178.143 152.315L193.511 148.019C194.528 147.733 195.391 147.055 195.909 146.135C196.427 145.215 196.557 144.127 196.272 143.11C195.987 142.093 195.31 141.231 194.388 140.713C193.467 140.195 192.378 140.063 191.359 140.347L175.992 144.643Z"
            fill="#E6E6E6"
          />
          <path
            d="M182.194 184.767C181.55 184.947 180.948 185.251 180.423 185.662C179.897 186.074 179.457 186.585 179.13 187.166C178.802 187.747 178.592 188.387 178.512 189.049C178.432 189.712 178.484 190.383 178.664 191.026C178.844 191.668 179.149 192.268 179.562 192.793C179.975 193.318 180.487 193.756 181.069 194.082C181.652 194.409 182.293 194.618 182.956 194.697C183.62 194.776 184.292 194.724 184.935 194.543L204.517 189.069C205.815 188.706 206.916 187.843 207.577 186.669C208.238 185.496 208.405 184.108 208.041 182.812C207.678 181.516 206.813 180.417 205.638 179.757C204.463 179.097 203.074 178.93 201.775 179.293L182.194 184.767Z"
            fill="#6B7280"
          />
          <path
            d="M202.346 165.025L57.4459 205.536L57.8065 206.822L202.707 166.311L202.346 165.025Z"
            fill="#E6E6E6"
          />
          <path
            d="M347.897 337.927L336.275 340.732L319.908 297.312L337.06 293.172L347.897 337.927Z"
            fill="#E1ACB3"
          />
          <path
            d="M316.226 357.32L316.147 356.996C315.226 353.173 315.861 349.142 317.913 345.786C319.965 342.431 323.267 340.025 327.093 339.097L349.831 333.608L353.399 348.347L316.226 357.32Z"
            fill="#2F2E41"
          />
          <path
            d="M296.451 345.832L284.495 345.831L278.807 299.786L296.453 299.787L296.451 345.832Z"
            fill="#E1ACB3"
          />
          <path
            d="M299.346 357.251L261.102 357.249V356.915C261.102 352.983 262.667 349.211 265.452 346.43C268.238 343.649 272.015 342.087 275.954 342.087H275.955L299.347 342.087L299.346 357.251Z"
            fill="#2F2E41"
          />
          <path
            d="M278.797 327.857L267.189 189.719L315.244 180.875L315.434 180.841L329.499 189.869L324.604 240.707L347.144 319.967L327.681 325.081L305.105 251.571L299.938 229.218L297.291 258.265L299.256 329.899L278.797 327.857Z"
            fill="#2F2E41"
          />
          <path
            d="M265.701 192.852L265.573 192.692L282.179 67.8518L282.201 67.6882L282.318 67.5712C282.563 67.3268 288.381 61.5863 294.365 61.5863C295.23 61.5863 296.053 61.5644 296.842 61.5444C301.421 61.4256 305.039 61.3305 309.338 65.6238C313.719 69.997 328.01 85.9664 328.01 107.838C328.01 129.008 329.941 194.797 329.96 195.459L329.988 196.388L329.207 195.881C329.015 195.757 309.792 183.536 293.671 194.897C288.633 198.447 284.107 199.692 280.237 199.692C271.23 199.692 265.777 192.95 265.701 192.852Z"
            fill="#6B7280"
          />
          <path
            d="M303.312 51.2855C314.92 44.95 319.186 30.4189 312.841 18.8293C306.495 7.23966 291.942 2.98031 280.334 9.31578C268.727 15.6512 264.461 30.1824 270.806 41.772C277.152 53.3616 291.705 57.621 303.312 51.2855Z"
            fill="#E1ACB3"
          />
          <path
            d="M255.156 219.681C256.29 218.805 257.217 217.69 257.872 216.417C258.527 215.144 258.895 213.743 258.949 212.312C259.003 210.882 258.743 209.457 258.186 208.138C257.629 206.819 256.789 205.638 255.725 204.678L269.328 172.642L251.517 175.915L241.331 205.835C239.834 207.726 239.084 210.099 239.223 212.505C239.362 214.911 240.38 217.183 242.084 218.89C243.788 220.597 246.06 221.62 248.47 221.766C250.879 221.912 253.258 221.17 255.156 219.681H255.156Z"
            fill="#E1ACB3"
          />
          <path
            d="M242.015 194.762L246.395 185.529C246.124 185.366 245.901 185.135 245.748 184.859C241.656 177.778 266.375 118.971 268.022 115.071C267.771 112.949 265.176 90.468 267.074 82.8903C269.307 73.9699 273.893 69.8125 282.408 68.9891C291.799 68.1085 294.332 80.8411 294.357 80.9704L294.365 113.703L283.588 151.383L259.009 201.446L242.015 194.762Z"
            fill="#6B7280"
          />
          <path
            d="M294.886 39.3108C292.015 39.6838 289.849 36.7505 288.844 34.0391C287.84 31.3276 287.074 28.1709 284.578 26.7062C281.167 24.7051 276.804 27.1118 272.903 26.4516C268.499 25.7061 265.635 21.0453 265.411 16.5904C265.186 12.1355 266.962 7.85083 268.704 3.74346L269.312 8.84798C269.231 7.11793 269.596 5.39597 270.371 3.84683C271.147 2.29769 272.308 0.97317 273.743 -3.05176e-05L272.959 7.49008C273.45 3.29393 277.978 0.0424855 282.118 0.912057L281.995 5.37492C287.082 4.77094 292.214 4.1661 297.316 4.62625C302.418 5.0864 307.556 6.69826 311.423 10.0533C317.208 15.0721 319.321 23.3359 318.611 30.9546C317.902 38.5733 314.752 45.7306 311.469 52.6445C310.644 54.3841 309.501 56.347 307.586 56.5686C305.865 56.7677 304.29 55.3314 303.755 53.6862C303.22 52.0409 303.481 50.2536 303.802 48.5536C304.286 45.9857 304.896 43.3608 304.441 40.7876C303.986 38.2143 302.132 35.6715 299.534 35.3561C296.936 35.0407 294.277 38.0058 295.526 40.302L294.886 39.3108Z"
            fill="#2F2E41"
          />
          <path
            d="M399.744 357.305H227.376V355.899H400L399.744 357.305Z"
            fill="#3F3D56"
          />
        </g>
        <defs>
          <clipPath id="clip0">
            <rect width="400" height="357.32" fill="white" />
          </clipPath>
        </defs>
      </svg>